<svg xmlns="http://www.w3.org/2000/svg" viewBox="0 0 100 100" width="100" height="100">
  <defs>
    <linearGradient id="dragonGradient" x1="0%" y1="0%" x2="100%" y2="100%">
      <stop offset="0%" style="stop-color:#FFD700;stop-opacity:1" />
      <stop offset="50%" style="stop-color:#FFA500;stop-opacity:1" />
      <stop offset="100%" style="stop-color:#FF8C00;stop-opacity:1" />
    </linearGradient>
    <filter id="dragonGlow">
      <feGaussianBlur stdDeviation="2" result="coloredBlur"/>
      <feMerge> 
        <feMergeNode in="coloredBlur"/>
        <feMergeNode in="SourceGraphic"/>
      </feMerge>
    </filter>
  </defs>

  <!-- Dragon Body -->
  <ellipse cx="50" cy="55" rx="25" ry="15" fill="url(#dragonGradient)" filter="url(#dragonGlow)"/>

  <!-- Dragon Head -->
  <ellipse cx="50" cy="35" rx="18" ry="20" fill="url(#dragonGradient)" filter="url(#dragonGlow)"/>

  <!-- Dragon Horns -->
  <polygon points="42,20 45,15 48,20" fill="#8B0000"/>
  <polygon points="52,20 55,15 58,20" fill="#8B0000"/>

  <!-- Dragon Eyes -->
  <circle cx="45" cy="32" r="3" fill="#8B0000"/>
  <circle cx="55" cy="32" r="3" fill="#8B0000"/>
  <circle cx="45" cy="31" r="1" fill="#FFD700"/>
  <circle cx="55" cy="31" r="1" fill="#FFD700"/>

  <!-- Dragon Nostrils -->
  <ellipse cx="48" cy="40" rx="1" ry="2" fill="#8B0000"/>
  <ellipse cx="52" cy="40" rx="1" ry="2" fill="#8B0000"/>

  <!-- Dragon Wings -->
  <path d="M25 45 Q15 35 20 25 Q30 30 35 45 Z" fill="url(#dragonGradient)" opacity="0.8"/>
  <path d="M75 45 Q85 35 80 25 Q70 30 65 45 Z" fill="url(#dragonGradient)" opacity="0.8"/>

  <!-- Dragon Tail -->
  <path d="M25 60 Q10 70 15 85 Q25 75 30 65" fill="url(#dragonGradient)" opacity="0.9"/>
  <path d="M75 60 Q90 70 85 85 Q75 75 70 65" fill="url(#dragonGradient)" opacity="0.9"/>

  <!-- Dragon Scales (decorative) -->
  <circle cx="40" cy="50" r="2" fill="#FF8C00" opacity="0.7"/>
  <circle cx="50" cy="48" r="2" fill="#FF8C00" opacity="0.7"/>
  <circle cx="60" cy="50" r="2" fill="#FF8C00" opacity="0.7"/>
  <circle cx="45" cy="58" r="2" fill="#FF8C00" opacity="0.7"/>
  <circle cx="55" cy="58" r="2" fill="#FF8C00" opacity="0.7"/>

  <!-- Dragon Flame (optional) -->
  <path d="M50 15 Q45 10 50 5 Q55 10 50 15" fill="#FF4500" opacity="0.8"/>
  <path d="M50 12 Q48 8 50 6 Q52 8 50 12" fill="#FFD700" opacity="0.9"/>
</svg>